PathFileType	4	(X/Y/Z)	C:/Users/opensim2020/Desktop/walking_exp_matlab/subject03_walking16_run.trc																																																																																																																																																	
DataRate	CameraRate	NumFrames	NumMarkers	Units	OrigDataRate	OrigDataStartFrame	OrigNumFrames																																																																																																																																													
100	100	9	49	mm	100	256	131																																																																																																																																													
Frame#	Time	RKNE			RTOE			RWRB			LTHI			RELB			RFRM			RUPA			RASI			LTIB			RWRA			RTHI			LSHO			LTOE			RTIB			LWRA			CLAV			LASI			RSHO			RFHD			STRN			LHEE			RFIN			RBHD			LFRM			C7			LWRB			LFIN			LUPA			LBHD			LELB			RANK			RHEE			RBAK			LPSI			T10			LFHD			RPSI			LKNE			LANK			*39			*40			*41			*42			*43			*44			*45			*46			*47			*48		
		X1	Y1	Z1	X2	Y2	Z2	X3	Y3	Z3	X4	Y4	Z4	X5	Y5	Z5	X6	Y6	Z6	X7	Y7	Z7	X8	Y8	Z8	X9	Y9	Z9	X10	Y10	Z10	X11	Y11	Z11	X12	Y12	Z12	X13	Y13	Z13	X14	Y14	Z14	X15	Y15	Z15	X16	Y16	Z16	X17	Y17	Z17	X18	Y18	Z18	X19	Y19	Z19	X20	Y20	Z20	X21	Y21	Z21	X22	Y22	Z22	X23	Y23	Z23	X24	Y24	Z24	X25	Y25	Z25	X26	Y26	Z26	X27	Y27	Z27	X28	Y28	Z28	X29	Y29	Z29	X30	Y30	Z30	X31	Y31	Z31	X32	Y32	Z32	X33	Y33	Z33	X34	Y34	Z34	X35	Y35	Z35	X36	Y36	Z36	X37	Y37	Z37	X38	Y38	Z38	X39	Y39	Z39	X40	Y40	Z40	X41	Y41	Z41	X42	Y42	Z42	X43	Y43	Z43	X44	Y44	Z44	X45	Y45	Z45	X46	Y46	Z46	X47	Y47	Z47	X48	Y48	Z48	X49	Y49	Z49
																																																																																																																																																				
66	0.65	471.103	410.23325	353.28217	363.87399	31.63398	277.52411	578.08771	878.91309	478.13412	469.92184	569.5639	74.3804	403.38156	1001.19019	546.26581	503.36041	932.76733	509.12015	382.92181	1094.8667	520.65674	431.91565	870.46661	364.5065	365.91919	336.31989	99.02465	575.32166	917.18079	439.56735	418.18912	582.97845	401.05692	431.18854	1318.59192	103.07996	189.14694	127.96109	148.8918	367.12354	244.93823	347.43973	479.03839	872.78192	102.84494	474.9317	1267.10901	255.91724	445.59137	852.74805	127.2253	420.92151	1290.33081	410.05435	445.73273	1565.20056	325.92059	506.86905	1095.172	246.80733	116.24345	298.90558	158.65077	644.92053	883.1272	450.97931	343.64871	1483.71985	318.60056	427.80142	952.83905	21.79978	349.81296	1343.27258	248.22583	492.44302	866.50299	46.87663	527.97266	798.48273	87.25098	369.9592	1149.23816	-0.50741	353.85983	1477.62793	188.33786	353.0582	1038.62866	-21.97793	236.72874	75.08475	294.96118	179.24664	58.54232	245.5827	290.92542	1171.52026	334.23981	283.85785	889.34448	161.08066	295.47202	1041.33826	231.19362	461.00195	1559.65845	193.06628	275.08676	911.92896	308.54803	540.61749	402.56573	102.40411	168.13309	273.15881	125.44093	NaN	NaN	NaN	NaN	NaN	NaN	NaN	NaN	NaN	NaN	NaN	NaN	NaN	NaN	NaN	NaN	NaN	NaN	NaN	NaN	NaN	357.29532	1590.82202	234.94876	NaN	NaN	NaN	NaN	NaN	NaN
67	0.66	480.97876	404.53128	354.39969	363.57581	31.46099	277.7912	629.06256	895.05536	469.80997	508.98376	576.35181	75.52831	447.5144	1003.28979	543.70563	551.53784	942.97333	503.59036	422.76382	1095.56348	519.38293	462.49246	870.24536	366.24237	422.27603	334.73254	98.98949	623.42999	934.58881	432.84225	436.71701	580.04163	401.03235	460.97366	1321.18481	103.02956	265.79565	114.74325	149.3683	372.21735	243.52106	348.53622	495.28833	875.12579	89.56078	506.99326	1268.61536	255.24098	477.13376	855.04822	127.57501	454.60156	1293.13892	409.95801	478.71951	1566.76575	326.37689	538.42212	1096.83374	246.13855	174.88322	276.8132	157.75513	694.74792	904.44525	442.04703	376.33148	1485.69385	319.24493	443.79367	957.97003	11.7918	381.35892	1344.93213	248.94933	506.02911	868.94031	32.94977	540.98737	799.21155	70.83121	391.28098	1157.06702	-3.22474	385.82889	1479.75256	188.92822	370.19363	1047.51416	-27.70472	237.43851	77.14688	296.47534	179.51193	62.44382	247.76956	324.48325	1173.45361	336.56174	315.33231	891.65186	161.92949	327.55133	1043.13184	232.98491	493.41406	1561.57532	193.47279	307.22949	913.03198	309.35144	591.66022	415.26578	103.71738	229.56581	255.74281	124.84149	NaN	NaN	NaN	NaN	NaN	NaN	NaN	NaN	NaN	NaN	NaN	NaN	NaN	NaN	NaN	NaN	NaN	NaN	NaN	NaN	NaN	389.83005	1592.99365	235.92308	NaN	NaN	NaN	NaN	NaN	NaN
68	0.67	489.98956	401.09317	355.34341	363.17233	31.2352	278.05591	678.29187	913.66913	461.60184	547.24524	583.70764	77.06249	491.17017	1006.76068	540.65106	597.9411	954.9201	497.65179	463.75623	1097.599	517.92688	493.94751	870.55774	367.44388	478.07468	333.28622	99.42166	670.00177	954.32544	426.70544	454.10098	578.75415	400.81705	490.15091	1325.20862	102.91454	343.41064	101.66621	150.96828	376.88989	243.68488	349.48389	512.14667	881.50568	76.82979	539.06421	1271.44629	254.33441	509.26865	858.50897	127.46024	488.51596	1297.13281	409.72729	511.70419	1569.60559	326.66525	570.5589	1099.98669	244.90561	235.58421	252.9516	157.74493	743.17987	928.36224	434.08228	409.01416	1489.01978	319.6781	459.91882	966.16425	2.39395	413.36462	1347.93103	249.98373	519.74701	874.80017	20.07242	554.98621	804.15527	55.67015	413.18506	1166.38684	-5.63218	417.98969	1483.34302	189.3504	387.73526	1058.22827	-33.22348	238.38074	80.60371	298.21194	179.66441	68.11376	249.79875	358.34424	1176.37195	338.93521	347.7038	895.3609	163.20081	360.37552	1045.48608	234.52446	526.02106	1564.698	193.70677	339.89783	915.46094	310.68546	640.5708	429.1084	105.40982	292.42667	237.42104	125.22778	NaN	NaN	NaN	NaN	NaN	NaN	NaN	NaN	NaN	NaN	NaN	NaN	NaN	NaN	NaN	NaN	NaN	NaN	NaN	NaN	NaN	423.02206	1596.25647	236.36496	NaN	NaN	NaN	NaN	NaN	NaN
69	0.68	498.69733	400.47131	356.06268	363.21597	31.16862	278.59341	725.27209	933.88489	453.2952	584.97333	591.66119	78.54274	534.16693	1011.63611	537.34863	642.83026	968.66595	491.52359	504.96506	1100.98926	515.66602	526.50281	871.4519	368.36386	533.13245	331.83246	100.62345	714.21429	975.22827	420.42264	471.5748	579.76007	400.58661	518.84845	1330.48804	102.99126	422.4613	89.28337	153.31461	381.64001	245.93916	350.68726	529.73364	890.98737	65.68659	571.19208	1275.40991	253.18219	541.51074	863.10889	127.88667	522.57172	1302.29285	409.28198	544.72125	1573.42688	326.83929	603.33063	1104.42859	243.30028	299.06573	227.59361	158.9995	789.31287	953.96039	426.7247	441.58173	1493.50647	319.92743	476.61514	976.64435	-6.23569	445.36951	1351.71924	251.15192	534.64313	883.82239	8.10019	570.58057	812.50507	40.97842	435.85068	1176.86145	-7.81909	450.22159	1488.20056	189.59349	406.05292	1070.38159	-38.01923	240.2603	85.56374	299.88458	181.07292	75.55776	251.72632	392.71317	1180.00879	341.26169	380.71774	900.19171	164.87744	393.52277	1048.69592	236.29497	558.60217	1568.85449	193.87894	373.66165	918.98535	312.43915	686.95013	443.3584	106.90658	357.26981	218.21718	126.42815	NaN	NaN	NaN	NaN	NaN	NaN	NaN	NaN	NaN	NaN	NaN	NaN	NaN	NaN	NaN	NaN	NaN	NaN	NaN	NaN	NaN	456.07935	1600.95105	236.92749	NaN	NaN	NaN	NaN	NaN	NaN
70	0.69	508.10049	402.77661	357.03467	363.66626	30.95982	278.95901	770.09479	955.34448	445.47342	622.97144	600.28644	79.93301	576.08362	1017.84637	533.51575	686.14508	983.67474	485.6152	546.20276	1105.77747	513.21869	560.44006	874.03052	368.03928	587.64325	329.78604	101.97881	756.07343	996.76147	414.12857	491.01208	583.2019	400.57251	547.24915	1336.74292	103.21665	502.25955	78.07877	156.78329	387.26965	250.57774	351.77737	549.20526	902.6853	55.08306	603.42902	1280.41663	251.79469	576.33899	868.72131	128.27124	556.84937	1308.46216	408.62137	577.72803	1578.07434	326.91611	636.6076	1109.91223	241.53181	364.90732	202.38885	161.15202	832.03143	979.64996	418.24088	474.1283	1498.90295	320.02731	494.52481	989.25226	-13.78997	477.21521	1356.09705	252.34019	551.01526	895.3139	-2.51489	586.80481	822.88123	28.39227	459.53586	1188.03259	-9.39152	482.39224	1493.96619	189.62939	425.20905	1083.64453	-41.98583	242.91705	92.73721	301.27704	184.24802	85.11176	253.33308	427.34509	1184.01392	343.63184	414.30405	905.77588	166.33003	427.70905	1052.47095	238.31842	591.3136	1573.8938	193.88254	408.27576	923.44232	314.37567	730.86603	457.10013	108.29018	423.99521	198.877	128.62521	NaN	NaN	NaN	NaN	NaN	NaN	NaN	NaN	NaN	NaN	NaN	NaN	NaN	NaN	NaN	NaN	NaN	NaN	NaN	NaN	NaN	489.24634	1606.37695	237.45647	NaN	NaN	NaN	NaN	NaN	NaN
71	0.7	518.76105	407.44556	358.34641	364.14645	30.52899	279.01031	812.75732	977.17664	438.11023	661.09277	609.41803	80.49369	617.65515	1025.52234	530.05713	727.88959	999.47424	480.00458	587.14288	1111.7876	510.41248	595.25372	876.99335	368.32745	641.66406	327.19879	103.2131	795.97498	1018.55676	408.32828	513.2157	588.30463	400.85944	575.54279	1343.65564	103.61234	582.91064	68.06211	160.94905	394.07922	257.8905	353.37698	569.35223	915.91132	46.05765	635.69946	1286.2572	250.31538	612.41461	875.88702	129.0545	591.21594	1315.39807	407.77832	610.73145	1583.38367	326.88663	670.15314	1116.12134	239.89	433.49631	177.46831	164.24834	873.34326	1006.24109	412.0228	506.67722	1504.9408	319.98987	513.53577	1003.31476	-20.24443	508.92001	1361.01477	253.48663	569.33545	908.73486	-11.49881	604.07867	834.55316	18.9822	483.87802	1199.80273	-10.86552	514.54431	1500.37964	189.5695	445.34714	1097.73364	-45.44029	247.36397	101.75158	303.03232	189.48767	97.1168	254.79515	462.37988	1188.6333	345.89432	448.34958	912.59888	167.366	461.3183	1056.86609	240.36078	623.96564	1579.67139	193.87086	443.52521	928.7453	315.92981	772.32611	469.97617	109.58463	492.61282	179.86844	131.4696	NaN	NaN	NaN	NaN	NaN	NaN	NaN	NaN	NaN	NaN	NaN	NaN	NaN	NaN	NaN	NaN	NaN	NaN	NaN	NaN	NaN	522.43073	1612.61462	237.82507	NaN	NaN	NaN	NaN	NaN	NaN
72	0.71	531.20654	413.98773	359.89026	365.40552	30.39691	279.00229	853.24689	998.80353	431.04663	699.13544	619.1048	80.83926	658.00171	1034.15466	526.63934	767.85791	1015.57263	474.51108	627.466	1118.63928	507.34833	630.45166	880.92102	367.81546	695.29199	324.31958	105.11499	833.95898	1039.95557	402.82797	537.11298	594.49414	401.48761	603.9306	1351.03223	104.20751	664.2113	59.42022	165.82227	402.22134	267.49179	355.42813	590.05652	929.55664	39.15791	668.013	1292.79041	248.76436	647.42273	882.92224	131.2166	625.5553	1322.93115	406.71973	643.6424	1589.23206	326.77756	703.87659	1122.95813	238.31998	504.69635	153.48729	168.0558	911.79987	1031.2948	404.80685	539.28149	1511.36389	319.86688	533.81555	1018.22266	-25.44557	540.29944	1366.53735	254.58374	589.46637	923.14465	-18.47487	622.35205	846.58899	11.42447	508.9516	1211.77759	-11.62964	546.72833	1507.29883	189.41794	466.39844	1112.34644	-48.15222	253.61093	113.00716	304.74231	197.16649	111.1501	256.25125	497.62851	1193.83362	348.1109	483.63376	919.85547	167.95232	496.05078	1061.71912	242.60773	656.50293	1586.02429	193.82941	479.19302	934.69495	316.96698	811.31189	481.33264	110.87067	563.12769	161.58821	135.03973	NaN	NaN	NaN	NaN	NaN	NaN	NaN	NaN	NaN	NaN	NaN	NaN	NaN	NaN	NaN	NaN	NaN	NaN	NaN	NaN	NaN	555.45935	1619.40271	238.08389	NaN	NaN	NaN	NaN	NaN	NaN
73	0.72	545.38068	422.267	361.82791	367.13745	30.51954	279.19305	891.97687	1019.69763	424.56839	736.88922	628.99371	80.95521	697.34979	1043.35229	523.4433	806.97968	1031.15979	469.87134	667.25482	1126.30566	504.92426	666.42224	885.8313	367.73029	748.12286	321.42322	107.47481	870.42932	1060.26868	397.77521	561.9328	601.89392	402.46005	632.8161	1358.66907	104.86795	745.52441	51.85789	171.51289	411.84937	279.02698	357.6752	612.43469	942.88428	33.21721	700.32886	1299.73975	247.30168	683.30627	890.93817	132.88081	659.83893	1330.72888	405.6058	676.48193	1595.40979	326.56378	737.6427	1130.16809	236.91647	578.37518	131.21802	172.63614	948.66083	1055.75012	398.81485	571.90454	1518.01453	319.49142	555.3327	1033.16882	-29.24833	572.23267	1372.27551	255.43933	610.91321	937.76147	-23.84033	641.31213	858.61609	5.31002	534.29846	1224.10034	-11.72186	579.19409	1514.55896	189.03783	488.59564	1127.11792	-50.07351	262.59863	125.69363	306.78345	207.81001	126.48748	258.03491	532.88171	1199.53125	350.30673	519.80322	927.60297	168.12152	530.85803	1066.9552	244.83896	689.21472	1592.89709	193.41226	515.34729	941.26331	317.49451	848.37103	491.47998	112.3396	635.51129	144.41931	139.03705	NaN	NaN	NaN	NaN	NaN	NaN	NaN	NaN	NaN	NaN	NaN	NaN	NaN	NaN	NaN	NaN	NaN	NaN	NaN	NaN	NaN	588.45819	1626.27222	238.3195	NaN	NaN	NaN	NaN	NaN	NaN
74	0.73	561.2616	431.90952	364.06635	368.93616	30.43891	279.1828	929.02521	1039.53833	418.5563	774.12891	638.62988	80.99272	735.67596	1052.77588	520.76367	844.17554	1046.29382	464.96741	705.69965	1134.18994	502.46204	702.80359	891.38544	367.32407	799.96454	318.52866	109.89791	905.4176	1079.80298	393.19293	587.49188	610.14136	403.34003	662.37231	1366.33533	105.52742	826.93896	45.43908	177.8114	423.83875	291.59085	360.93799	633.79846	955.79108	29.64926	732.65765	1306.94434	245.87555	719.73669	898.77063	134.0121	693.95294	1338.56921	404.44843	709.28381	1601.72998	326.29413	771.40247	1137.84851	235.44939	654.1402	111.65455	177.36156	983.80951	1078.69629	392.89771	604.43903	1524.75342	319.01703	578.0426	1047.8186	-31.85055	604.69598	1378.22095	255.9257	633.40277	951.97314	-28.16216	661.62	870.72925	-0.43099	561.18768	1236.58545	-11.86526	611.51166	1521.71167	188.57869	512.10541	1141.89807	-51.21997	274.51205	138.7506	309.70261	221.72414	142.4328	260.375	568.20618	1205.6582	352.46933	556.56866	935.46686	168.1778	566.17773	1072.46252	246.75702	721.73694	1599.61975	193.36015	551.92133	948.27191	317.62936	883.50824	499.97592	114.19793	709.44769	129.21571	143.34709	NaN	NaN	NaN	NaN	NaN	NaN	NaN	NaN	NaN	NaN	NaN	NaN	NaN	NaN	NaN	NaN	NaN	NaN	NaN	NaN	NaN	620.63214	1634.15247	238.49374	NaN	NaN	NaN	NaN	NaN	NaN
